<svg width="30" height="31" viewBox="0 0 30 31" fill="none" xmlns="http://www.w3.org/2000/svg">
<path d="M22.9301 5.30731C22.5804 5.30731 22.2385 5.41526 21.9477 5.61752C21.6569 5.81978 21.4302 6.10725 21.2964 6.44359C21.1625 6.77993 21.1275 7.15003 21.1958 7.50709C21.264 7.86415 21.4324 8.19213 21.6797 8.44955C21.927 8.70698 22.2421 8.88228 22.5851 8.95331C22.9281 9.02433 23.2837 8.98788 23.6068 8.84856C23.9299 8.70925 24.2061 8.47332 24.4004 8.17062C24.5947 7.86792 24.6984 7.51204 24.6984 7.14799C24.6984 6.65981 24.5121 6.19163 24.1805 5.84643C23.8489 5.50124 23.3991 5.30731 22.9301 5.30731ZM29.7086 9.01935C29.68 7.74667 29.451 6.4875 29.0308 5.29197C28.6561 4.26906 28.0729 3.3428 27.3214 2.57696C26.5917 1.79072 25.6998 1.18751 24.7131 0.812969C23.5676 0.362248 22.3566 0.118433 21.1323 0.0920341C19.5703 -8.2285e-08 19.0693 0 15.0611 0C11.0529 0 10.5519 -8.2285e-08 8.98991 0.0920341C7.76558 0.118433 6.55457 0.362248 5.40909 0.812969C4.42425 1.1913 3.53311 1.79399 2.80083 2.57696C2.0455 3.33651 1.46602 4.26493 1.1062 5.29197C0.6732 6.48434 0.438971 7.74491 0.413611 9.01935C0.325195 10.6453 0.325195 11.1668 0.325195 15.339C0.325195 19.5113 0.325195 20.0328 0.413611 21.6587C0.438971 22.9332 0.6732 24.1937 1.1062 25.3861C1.46602 26.4131 2.0455 27.3416 2.80083 28.1011C3.53311 28.8841 4.42425 29.4868 5.40909 29.8651C6.55457 30.3158 7.76558 30.5596 8.98991 30.586C10.5519 30.6781 11.0529 30.6781 15.0611 30.6781C19.0693 30.6781 19.5703 30.6781 21.1323 30.586C22.3566 30.5596 23.5676 30.3158 24.7131 29.8651C25.6998 29.4906 26.5917 28.8874 27.3214 28.1011C28.0762 27.3381 28.6599 26.4111 29.0308 25.3861C29.451 24.1906 29.68 22.9314 29.7086 21.6587C29.7086 20.0328 29.797 19.5113 29.797 15.339C29.797 11.1668 29.797 10.6453 29.7086 9.01935ZM27.0561 21.4747C27.0454 22.4483 26.876 23.4131 26.5551 24.3277C26.3198 24.9953 25.9419 25.5984 25.4499 26.0917C24.972 26.5987 24.3937 26.9912 23.7553 27.2421C22.8766 27.5761 21.9498 27.7525 21.0144 27.7637C19.5408 27.8404 18.9956 27.8557 15.1201 27.8557C11.2445 27.8557 10.6993 27.8557 9.22569 27.7637C8.25443 27.7826 7.28732 27.6269 6.36692 27.3035C5.75653 27.0398 5.20478 26.6482 4.74597 26.1531C4.25687 25.6603 3.88369 25.0566 3.65551 24.3891C3.29574 23.4613 3.0962 22.4747 3.06608 21.4747C3.06608 19.9407 2.97766 19.3732 2.97766 15.339C2.97766 11.3049 2.97766 10.7373 3.06608 9.20342C3.07268 8.208 3.24725 7.22153 3.58183 6.28901C3.84125 5.64156 4.23944 5.06443 4.74597 4.60171C5.19367 4.07431 5.74696 3.65544 6.36692 3.37459C7.26515 3.0372 8.21185 2.86085 9.16674 2.85306C10.6403 2.85306 11.1856 2.76103 15.0611 2.76103C18.9367 2.76103 19.4819 2.76103 20.9555 2.85306C21.8909 2.86423 22.8177 3.04058 23.6964 3.37459C24.366 3.63328 24.967 4.05387 25.4499 4.60171C25.9328 5.07289 26.3102 5.64896 26.5551 6.28901C26.8826 7.22305 27.0522 8.20912 27.0561 9.20342C27.1298 10.7373 27.1446 11.3049 27.1446 15.339C27.1446 19.3732 27.1298 19.9407 27.0561 21.4747ZM15.0611 7.47011C13.5666 7.47314 12.1065 7.93722 10.8653 8.80371C9.62407 9.67021 8.65744 10.9002 8.08754 12.3383C7.51763 13.7765 7.37003 15.3582 7.66338 16.8836C7.95673 18.409 8.67786 19.8097 9.73566 20.9086C10.7935 22.0076 12.1405 22.7555 13.6065 23.0579C15.0725 23.3603 16.5917 23.2035 17.9721 22.6075C19.3526 22.0115 20.5324 21.0029 21.3624 19.7092C22.1924 18.4155 22.6354 16.8947 22.6354 15.339C22.6373 14.3038 22.4426 13.2784 22.0625 12.3218C21.6824 11.3652 21.1243 10.4962 20.4204 9.76491C19.7165 9.03361 18.8806 8.45438 17.9608 8.06056C17.0411 7.66673 16.0556 7.46606 15.0611 7.47011ZM15.0611 20.4469C14.0906 20.4469 13.1419 20.1474 12.3349 19.5861C11.5279 19.0248 10.899 18.2271 10.5276 17.2937C10.1562 16.3604 10.059 15.3334 10.2483 14.3425C10.4377 13.3517 10.905 12.4416 11.5913 11.7272C12.2776 11.0129 13.1519 10.5264 14.1038 10.3293C15.0557 10.1322 16.0423 10.2333 16.939 10.62C17.8356 11.0066 18.602 11.6613 19.1412 12.5012C19.6804 13.3412 19.9682 14.3288 19.9682 15.339C19.9682 16.0098 19.8412 16.674 19.5946 17.2937C19.348 17.9135 18.9866 18.4766 18.5309 18.9509C18.0753 19.4252 17.5343 19.8014 16.939 20.0581C16.3436 20.3148 15.7055 20.4469 15.0611 20.4469Z" fill="white"/>
</svg>
