<svg width="40" height="31" viewBox="0 0 40 31" fill="none" xmlns="http://www.w3.org/2000/svg">
<path d="M39.5422 3.67544C38.0564 4.28989 36.485 4.69607 34.877 4.88137C36.5735 3.91535 37.8447 2.39562 38.455 0.604095C36.8608 1.50866 35.1158 2.14598 33.2956 2.48836C32.079 1.23075 30.4589 0.393616 28.6894 0.108254C26.9199 -0.177108 25.101 0.105441 23.5181 0.911586C21.9352 1.71773 20.6778 3.00187 19.943 4.56262C19.2083 6.12336 19.0378 7.87242 19.4582 9.53549C16.235 9.38009 13.0821 8.58008 10.2043 7.18744C7.32655 5.7948 4.78834 3.84068 2.75455 1.45201C2.0412 2.63941 1.66637 3.98412 1.66732 5.35243C1.66479 6.62314 1.99194 7.87473 2.61964 8.99577C3.24734 10.1168 4.15611 11.0725 5.26504 11.7778C3.97614 11.7443 2.71478 11.4147 1.58825 10.8168V10.911C1.59791 12.6914 2.25243 14.414 3.44111 15.7874C4.62978 17.1608 6.27963 18.1007 8.11159 18.448C7.40639 18.6526 6.67423 18.7605 5.93714 18.7684C5.42692 18.7627 4.91797 18.7186 4.41503 18.6365C4.93672 20.168 5.94628 21.5065 7.30324 22.4656C8.6602 23.4247 10.2971 23.9568 11.9861 23.9878C9.13398 26.1269 5.61272 27.2944 1.98361 27.3041C1.32284 27.3061 0.662601 27.2684 0.00683594 27.191C3.71215 29.4715 8.03017 30.682 12.4407 30.6769C15.4843 30.707 18.5037 30.1588 21.3226 29.0641C24.1414 27.9695 26.7031 26.3504 28.8582 24.3015C31.0132 22.2526 32.7183 19.8149 33.8739 17.1308C35.0296 14.4467 35.6125 11.57 35.5887 8.66873C35.5887 8.34841 35.5887 8.00924 35.5887 7.67007C37.1398 6.56742 38.4777 5.21568 39.5422 3.67544V3.67544Z" fill="white"/>
</svg>
