<svg width="33" height="31" viewBox="0 0 33 31" fill="none" xmlns="http://www.w3.org/2000/svg">
<path d="M23.794 18.4222C23.4763 18.269 21.4107 17.3498 21.093 17.1966C20.7752 17.0434 20.4574 17.0434 20.1397 17.3498C19.8219 17.6562 19.1863 18.5754 18.8686 18.8818C18.7097 19.1882 18.3919 19.1882 18.0741 19.035C16.9619 18.5754 15.8497 17.9626 14.8964 17.1966C14.102 16.4306 13.3076 15.5114 12.672 14.5922C12.5131 14.2858 12.672 13.9794 12.8309 13.8262C12.9898 13.673 13.1487 13.3666 13.4664 13.2134C13.6253 13.0602 13.7842 12.7538 13.7842 12.6006C13.9431 12.4474 13.9431 12.141 13.7842 11.9878C13.6253 11.8346 12.8309 9.99623 12.5131 9.23023C12.3542 8.15784 12.0365 8.15784 11.7187 8.15784C11.5598 8.15784 11.242 8.15784 10.9243 8.15784C10.6065 8.15784 10.1298 8.46424 9.97096 8.61744C9.01764 9.53663 8.54098 10.609 8.54098 11.8346C8.69987 13.2134 9.17653 14.5922 10.1298 15.8178C11.8776 18.269 14.102 20.2606 16.8031 21.4861C17.5975 21.7925 18.233 22.0989 19.0275 22.2521C19.8219 22.5585 20.6163 22.5585 21.5696 22.4053C22.6818 22.2521 23.6352 21.4861 24.2707 20.5669C24.5885 19.9542 24.5885 19.3414 24.4296 18.7286C24.4296 18.7286 24.1118 18.5754 23.794 18.4222ZM27.7662 4.48107C21.5696 -1.49369 11.5598 -1.49369 5.36326 4.48107C0.278908 9.38343 -0.674408 16.8902 2.82108 22.8649L0.59668 30.6781L9.01764 28.5333C11.4009 29.7589 13.9431 30.3717 16.4853 30.3717C25.224 30.3717 32.215 23.6309 32.215 15.205C32.3739 11.2218 30.6261 7.39185 27.7662 4.48107ZM23.4763 25.9289C21.4107 27.1545 19.0275 27.9205 16.4853 27.9205C14.102 27.9205 11.8776 27.3077 9.81207 26.2353L9.33541 25.9289L4.40994 27.1545L5.68103 22.5585L5.36326 22.0989C1.55 15.971 3.45663 8.31104 9.65318 4.48107C15.8497 0.651096 23.794 2.64268 27.6073 8.46424C31.4206 14.439 29.6728 22.2521 23.4763 25.9289Z" fill="white"/>
</svg>
